<svg width="25" height="25" viewBox="0 0 25 25" fill="none" xmlns="http://www.w3.org/2000/svg">
<path d="M7.67627 12.9511L7.67627 12.9512C7.71317 15.3101 7.49175 17.6707 7.01831 19.966L7.01827 19.9663C6.91495 20.4648 7.23616 20.9529 7.73403 21.0554L7.68362 21.3003L7.73373 21.0554C8.23597 21.1581 8.72011 20.8382 8.82355 20.3396C9.32471 17.9118 9.55886 15.416 9.52008 12.9224L7.67627 12.9511ZM7.67627 12.9511C7.63697 10.4534 9.61112 8.26666 12.4614 8.26904C15.112 8.30901 17.2952 10.4543 17.336 13.0386C17.3743 15.5091 17.1909 17.9931 16.789 20.4211L16.789 20.4212C16.7767 20.4956 16.7015 20.7314 16.5282 20.9237C16.367 21.1026 16.1221 21.246 15.7301 21.1806L15.7298 21.1806C15.2276 21.0976 14.8875 20.6227 14.9708 20.1215L14.9708 20.1213C15.3541 17.8009 15.53 15.4285 15.4922 13.0674M7.67627 12.9511L12.4298 10.1128M12.4298 10.1128L12.4325 10.1128C14.0876 10.1377 15.467 11.4525 15.4922 13.0674M12.4298 10.1128C10.5939 10.1048 9.49804 11.5253 9.52008 12.9223L12.4298 10.1128ZM15.4922 13.0674L15.2422 13.0713M15.4922 13.0674C15.4922 13.0674 15.4922 13.0673 15.4922 13.0673L15.2422 13.0713M15.2422 13.0713C15.2798 15.4175 15.105 17.7749 14.7242 20.0806L12.4287 10.3628C13.9575 10.3857 15.2193 11.6001 15.2422 13.0713ZM12.4001 4.25974L12.3972 4.25969C11.669 4.2403 10.9359 4.32768 10.2262 4.49568C9.73123 4.61319 9.42456 5.10926 9.54112 5.60534C9.65845 6.0996 10.1552 6.40557 10.6515 6.29029C11.2122 6.15787 11.7897 6.09949 12.3704 6.10352L12.3724 6.10353V6.10354C16.1834 6.16063 19.3415 9.21037 19.3999 12.9209L19.3999 12.9209C19.4289 14.7812 19.337 16.6588 19.1258 18.5016M12.4001 4.25974L19.1499 12.9248C19.1787 14.7744 19.0874 16.6411 18.8775 18.4731C18.8042 19.1162 19.2657 19.6978 19.9082 19.771C20.7246 19.8662 21.1538 19.1909 21.2061 18.7402C21.428 16.7978 21.524 14.843 21.4937 12.8882M12.4001 4.25974C17.2063 4.33105 21.1697 8.21059 21.2437 12.8921M12.4001 4.25974L21.4937 12.8882M19.1258 18.5016L18.879 18.4733L19.1259 18.5014C19.1259 18.5015 19.1259 18.5015 19.1258 18.5016ZM19.1258 18.5016C19.0683 19.0078 19.4316 19.465 19.9365 19.5226L19.9372 19.5227C20.2633 19.5607 20.5011 19.4474 20.668 19.2825C20.8424 19.1103 20.938 18.8818 20.9577 18.7114M20.9577 18.7114C20.9577 18.7116 20.9577 18.7117 20.9577 18.7119L21.206 18.7402L20.9577 18.7114ZM20.9577 18.7114C21.1784 16.7798 21.2739 14.836 21.2437 12.8921M21.2437 12.8921C21.2437 12.8921 21.2437 12.8921 21.2437 12.8921L21.4937 12.8882M21.2437 12.8921L21.4937 12.8882M23.3695 9.29182L23.3689 9.29196C22.8718 9.40184 22.5576 9.89352 22.6675 10.3909L22.6675 10.3911C22.904 11.4658 22.9131 12.271 22.9029 13.4547C22.8986 13.9642 23.3075 14.3795 23.8161 14.3843H23.8247C24.3307 14.3843 24.7424 13.9767 24.7466 13.4701L24.7467 13.4548C24.7555 12.378 24.764 11.3358 24.4679 9.99397L23.3695 9.29182ZM23.3695 9.29182C23.8717 9.1795 24.3574 9.4956 24.4678 9.99381L23.3695 9.29182ZM22.5484 5.65402L22.5483 5.65387C20.2165 2.33143 16.4003 0.311879 12.3404 0.250951C8.9978 0.210813 5.91169 1.44244 3.61686 3.73818L22.5484 5.65402ZM22.5484 5.65402C22.8409 6.07012 22.7406 6.645 22.3243 6.93783C21.9064 7.2297 21.3326 7.12948 21.0407 6.71298L21.0406 6.71281C19.0467 3.87225 15.7845 2.14672 12.3133 2.09524L12.3132 2.09524M22.5484 5.65402L12.3132 2.09524M0.256431 12.0449H0.256373L0.250514 13.0932L0.25048 13.0992L0.250409 13.0991C0.235424 13.6083 0.635736 14.0329 1.1444 14.0475L1.15166 14.0477L1.1576 14.0482L0.256431 12.0449ZM0.256431 12.0449L0.256346 12.0395M0.256431 12.0449L0.256346 12.0395M0.256346 12.0395C0.206638 8.90363 1.40038 5.95757 3.61678 3.73826L0.256346 12.0395ZM12.3132 2.09524C9.49716 2.05475 6.86393 3.09844 4.92184 5.04251C3.0622 6.90314 2.05977 9.37737 2.1006 12.0075L2.09283 13.156L12.3132 2.09524ZM11.9967 24.0766L11.9967 24.0769C11.8822 24.4839 11.5125 24.75 11.1099 24.75C10.6979 24.75 10.4622 24.5542 10.3309 24.3137C10.19 24.0558 10.1734 23.7507 10.2217 23.5788L9.98099 23.5112L10.2217 23.5788C11.1829 20.1559 11.6394 16.7316 11.5835 13.1798C11.5845 12.6713 11.9971 12.2598 12.5054 12.2598C13.0148 12.2598 13.4272 12.6727 13.4268 13.1814H13.4268L13.4268 13.1856C13.5025 17.993 12.6532 21.752 11.9967 24.0766ZM5.13437 18.5352L5.13436 18.5352C5.12133 18.6076 5.04432 18.8406 4.86919 19.0299C4.70648 19.2057 4.4586 19.3475 4.06228 19.2787C3.5616 19.1878 3.2295 18.7088 3.31932 18.2074C3.64642 16.3955 3.79713 14.539 3.76806 12.688C3.73774 10.7584 4.39033 8.87332 5.60405 7.38099C5.92649 6.98616 6.50501 6.92691 6.90099 7.24726C7.29581 7.56892 7.35554 8.14913 7.03517 8.54381C6.07982 9.71716 5.58801 11.1417 5.61188 12.6592C5.64287 14.629 5.48255 16.6059 5.13437 18.5352Z" stroke="white" stroke-width="0.5"/>
</svg>
